<?xml version="1.0" encoding="utf-8" standalone="no"?>
<!DOCTYPE svg PUBLIC "-//W3C//DTD SVG 1.1//EN"
  "http://www.w3.org/Graphics/SVG/1.1/DTD/svg11.dtd">
<svg xmlns:xlink="http://www.w3.org/1999/xlink" width="720pt" height="432pt" viewBox="0 0 720 432" xmlns="http://www.w3.org/2000/svg" version="1.1">
 <metadata>
  <rdf:RDF xmlns:dc="http://purl.org/dc/elements/1.1/" xmlns:cc="http://creativecommons.org/ns#" xmlns:rdf="http://www.w3.org/1999/02/22-rdf-syntax-ns#">
   <cc:Work>
    <dc:type rdf:resource="http://purl.org/dc/dcmitype/StillImage"/>
    <dc:date>2024-06-18T00:51:31.296408</dc:date>
    <dc:format>image/svg+xml</dc:format>
    <dc:creator>
     <cc:Agent>
      <dc:title>Matplotlib v3.9.0, https://matplotlib.org/</dc:title>
     </cc:Agent>
    </dc:creator>
   </cc:Work>
  </rdf:RDF>
 </metadata>
 <defs>
  <style type="text/css">*{stroke-linejoin: round; stroke-linecap: butt}</style>
 </defs>
 <g id="figure_1">
  <g id="patch_1">
   <path d="M 0 432 
L 720 432 
L 720 0 
L 0 0 
z
" style="fill: #ffffff"/>
  </g>
  <g id="axes_1">
   <g id="patch_2">
    <path d="M 90 384.48 
L 648 384.48 
L 648 51.84 
L 90 51.84 
z
" style="fill: #ffffff"/>
   </g>
   <g id="matplotlib.axis_1">
    <g id="xtick_1">
     <g id="line2d_1">
      <path d="M 124.875 384.48 
L 124.875 51.84 
" clip-path="url(#pf7130037a1)" style="fill: none; stroke: #b0b0b0; stroke-width: 0.8; stroke-linecap: square"/>
     </g>
     <g id="line2d_2">
      <defs>
       <path id="mbd3bcef79f" d="M 0 0 
L 0 3.5 
" style="stroke: #000000; stroke-width: 0.8"/>
      </defs>
      <g>
       <use xlink:href="#mbd3bcef79f" x="124.875" y="384.48" style="stroke: #000000; stroke-width: 0.8"/>
      </g>
     </g>
     <g id="text_1">
      <!-- s1 -->
      <g transform="translate(119.089062 399.078438) scale(0.1 -0.1)">
       <defs>
        <path id="DejaVuSans-73" d="M 2834 3397 
L 2834 2853 
Q 2591 2978 2328 3040 
Q 2066 3103 1784 3103 
Q 1356 3103 1142 2972 
Q 928 2841 928 2578 
Q 928 2378 1081 2264 
Q 1234 2150 1697 2047 
L 1894 2003 
Q 2506 1872 2764 1633 
Q 3022 1394 3022 966 
Q 3022 478 2636 193 
Q 2250 -91 1575 -91 
Q 1294 -91 989 -36 
Q 684 19 347 128 
L 347 722 
Q 666 556 975 473 
Q 1284 391 1588 391 
Q 1994 391 2212 530 
Q 2431 669 2431 922 
Q 2431 1156 2273 1281 
Q 2116 1406 1581 1522 
L 1381 1569 
Q 847 1681 609 1914 
Q 372 2147 372 2553 
Q 372 3047 722 3315 
Q 1072 3584 1716 3584 
Q 2034 3584 2315 3537 
Q 2597 3491 2834 3397 
z
" transform="scale(0.015625)"/>
        <path id="DejaVuSans-31" d="M 794 531 
L 1825 531 
L 1825 4091 
L 703 3866 
L 703 4441 
L 1819 4666 
L 2450 4666 
L 2450 531 
L 3481 531 
L 3481 0 
L 794 0 
L 794 531 
z
" transform="scale(0.015625)"/>
       </defs>
       <use xlink:href="#DejaVuSans-73"/>
       <use xlink:href="#DejaVuSans-31" x="52.099609"/>
      </g>
     </g>
    </g>
    <g id="xtick_2">
     <g id="line2d_3">
      <path d="M 194.625 384.48 
L 194.625 51.84 
" clip-path="url(#pf7130037a1)" style="fill: none; stroke: #b0b0b0; stroke-width: 0.8; stroke-linecap: square"/>
     </g>
     <g id="line2d_4">
      <g>
       <use xlink:href="#mbd3bcef79f" x="194.625" y="384.48" style="stroke: #000000; stroke-width: 0.8"/>
      </g>
     </g>
     <g id="text_2">
      <!-- res_block1 -->
      <g transform="translate(168.052344 399.078438) scale(0.1 -0.1)">
       <defs>
        <path id="DejaVuSans-72" d="M 2631 2963 
Q 2534 3019 2420 3045 
Q 2306 3072 2169 3072 
Q 1681 3072 1420 2755 
Q 1159 2438 1159 1844 
L 1159 0 
L 581 0 
L 581 3500 
L 1159 3500 
L 1159 2956 
Q 1341 3275 1631 3429 
Q 1922 3584 2338 3584 
Q 2397 3584 2469 3576 
Q 2541 3569 2628 3553 
L 2631 2963 
z
" transform="scale(0.015625)"/>
        <path id="DejaVuSans-65" d="M 3597 1894 
L 3597 1613 
L 953 1613 
Q 991 1019 1311 708 
Q 1631 397 2203 397 
Q 2534 397 2845 478 
Q 3156 559 3463 722 
L 3463 178 
Q 3153 47 2828 -22 
Q 2503 -91 2169 -91 
Q 1331 -91 842 396 
Q 353 884 353 1716 
Q 353 2575 817 3079 
Q 1281 3584 2069 3584 
Q 2775 3584 3186 3129 
Q 3597 2675 3597 1894 
z
M 3022 2063 
Q 3016 2534 2758 2815 
Q 2500 3097 2075 3097 
Q 1594 3097 1305 2825 
Q 1016 2553 972 2059 
L 3022 2063 
z
" transform="scale(0.015625)"/>
        <path id="DejaVuSans-5f" d="M 3263 -1063 
L 3263 -1509 
L -63 -1509 
L -63 -1063 
L 3263 -1063 
z
" transform="scale(0.015625)"/>
        <path id="DejaVuSans-62" d="M 3116 1747 
Q 3116 2381 2855 2742 
Q 2594 3103 2138 3103 
Q 1681 3103 1420 2742 
Q 1159 2381 1159 1747 
Q 1159 1113 1420 752 
Q 1681 391 2138 391 
Q 2594 391 2855 752 
Q 3116 1113 3116 1747 
z
M 1159 2969 
Q 1341 3281 1617 3432 
Q 1894 3584 2278 3584 
Q 2916 3584 3314 3078 
Q 3713 2572 3713 1747 
Q 3713 922 3314 415 
Q 2916 -91 2278 -91 
Q 1894 -91 1617 61 
Q 1341 213 1159 525 
L 1159 0 
L 581 0 
L 581 4863 
L 1159 4863 
L 1159 2969 
z
" transform="scale(0.015625)"/>
        <path id="DejaVuSans-6c" d="M 603 4863 
L 1178 4863 
L 1178 0 
L 603 0 
L 603 4863 
z
" transform="scale(0.015625)"/>
        <path id="DejaVuSans-6f" d="M 1959 3097 
Q 1497 3097 1228 2736 
Q 959 2375 959 1747 
Q 959 1119 1226 758 
Q 1494 397 1959 397 
Q 2419 397 2687 759 
Q 2956 1122 2956 1747 
Q 2956 2369 2687 2733 
Q 2419 3097 1959 3097 
z
M 1959 3584 
Q 2709 3584 3137 3096 
Q 3566 2609 3566 1747 
Q 3566 888 3137 398 
Q 2709 -91 1959 -91 
Q 1206 -91 779 398 
Q 353 888 353 1747 
Q 353 2609 779 3096 
Q 1206 3584 1959 3584 
z
" transform="scale(0.015625)"/>
        <path id="DejaVuSans-63" d="M 3122 3366 
L 3122 2828 
Q 2878 2963 2633 3030 
Q 2388 3097 2138 3097 
Q 1578 3097 1268 2742 
Q 959 2388 959 1747 
Q 959 1106 1268 751 
Q 1578 397 2138 397 
Q 2388 397 2633 464 
Q 2878 531 3122 666 
L 3122 134 
Q 2881 22 2623 -34 
Q 2366 -91 2075 -91 
Q 1284 -91 818 406 
Q 353 903 353 1747 
Q 353 2603 823 3093 
Q 1294 3584 2113 3584 
Q 2378 3584 2631 3529 
Q 2884 3475 3122 3366 
z
" transform="scale(0.015625)"/>
        <path id="DejaVuSans-6b" d="M 581 4863 
L 1159 4863 
L 1159 1991 
L 2875 3500 
L 3609 3500 
L 1753 1863 
L 3688 0 
L 2938 0 
L 1159 1709 
L 1159 0 
L 581 0 
L 581 4863 
z
" transform="scale(0.015625)"/>
       </defs>
       <use xlink:href="#DejaVuSans-72"/>
       <use xlink:href="#DejaVuSans-65" x="38.863281"/>
       <use xlink:href="#DejaVuSans-73" x="100.386719"/>
       <use xlink:href="#DejaVuSans-5f" x="152.486328"/>
       <use xlink:href="#DejaVuSans-62" x="202.486328"/>
       <use xlink:href="#DejaVuSans-6c" x="265.962891"/>
       <use xlink:href="#DejaVuSans-6f" x="293.746094"/>
       <use xlink:href="#DejaVuSans-63" x="354.927734"/>
       <use xlink:href="#DejaVuSans-6b" x="409.908203"/>
       <use xlink:href="#DejaVuSans-31" x="467.818359"/>
      </g>
     </g>
    </g>
    <g id="xtick_3">
     <g id="line2d_5">
      <path d="M 264.375 384.48 
L 264.375 51.84 
" clip-path="url(#pf7130037a1)" style="fill: none; stroke: #b0b0b0; stroke-width: 0.8; stroke-linecap: square"/>
     </g>
     <g id="line2d_6">
      <g>
       <use xlink:href="#mbd3bcef79f" x="264.375" y="384.48" style="stroke: #000000; stroke-width: 0.8"/>
      </g>
     </g>
     <g id="text_3">
      <!-- res_block2 -->
      <g transform="translate(237.802344 399.078438) scale(0.1 -0.1)">
       <defs>
        <path id="DejaVuSans-32" d="M 1228 531 
L 3431 531 
L 3431 0 
L 469 0 
L 469 531 
Q 828 903 1448 1529 
Q 2069 2156 2228 2338 
Q 2531 2678 2651 2914 
Q 2772 3150 2772 3378 
Q 2772 3750 2511 3984 
Q 2250 4219 1831 4219 
Q 1534 4219 1204 4116 
Q 875 4013 500 3803 
L 500 4441 
Q 881 4594 1212 4672 
Q 1544 4750 1819 4750 
Q 2544 4750 2975 4387 
Q 3406 4025 3406 3419 
Q 3406 3131 3298 2873 
Q 3191 2616 2906 2266 
Q 2828 2175 2409 1742 
Q 1991 1309 1228 531 
z
" transform="scale(0.015625)"/>
       </defs>
       <use xlink:href="#DejaVuSans-72"/>
       <use xlink:href="#DejaVuSans-65" x="38.863281"/>
       <use xlink:href="#DejaVuSans-73" x="100.386719"/>
       <use xlink:href="#DejaVuSans-5f" x="152.486328"/>
       <use xlink:href="#DejaVuSans-62" x="202.486328"/>
       <use xlink:href="#DejaVuSans-6c" x="265.962891"/>
       <use xlink:href="#DejaVuSans-6f" x="293.746094"/>
       <use xlink:href="#DejaVuSans-63" x="354.927734"/>
       <use xlink:href="#DejaVuSans-6b" x="409.908203"/>
       <use xlink:href="#DejaVuSans-32" x="467.818359"/>
      </g>
     </g>
    </g>
    <g id="xtick_4">
     <g id="line2d_7">
      <path d="M 334.125 384.48 
L 334.125 51.84 
" clip-path="url(#pf7130037a1)" style="fill: none; stroke: #b0b0b0; stroke-width: 0.8; stroke-linecap: square"/>
     </g>
     <g id="line2d_8">
      <g>
       <use xlink:href="#mbd3bcef79f" x="334.125" y="384.48" style="stroke: #000000; stroke-width: 0.8"/>
      </g>
     </g>
     <g id="text_4">
      <!-- res_block3 -->
      <g transform="translate(307.552344 399.078438) scale(0.1 -0.1)">
       <defs>
        <path id="DejaVuSans-33" d="M 2597 2516 
Q 3050 2419 3304 2112 
Q 3559 1806 3559 1356 
Q 3559 666 3084 287 
Q 2609 -91 1734 -91 
Q 1441 -91 1130 -33 
Q 819 25 488 141 
L 488 750 
Q 750 597 1062 519 
Q 1375 441 1716 441 
Q 2309 441 2620 675 
Q 2931 909 2931 1356 
Q 2931 1769 2642 2001 
Q 2353 2234 1838 2234 
L 1294 2234 
L 1294 2753 
L 1863 2753 
Q 2328 2753 2575 2939 
Q 2822 3125 2822 3475 
Q 2822 3834 2567 4026 
Q 2313 4219 1838 4219 
Q 1578 4219 1281 4162 
Q 984 4106 628 3988 
L 628 4550 
Q 988 4650 1302 4700 
Q 1616 4750 1894 4750 
Q 2613 4750 3031 4423 
Q 3450 4097 3450 3541 
Q 3450 3153 3228 2886 
Q 3006 2619 2597 2516 
z
" transform="scale(0.015625)"/>
       </defs>
       <use xlink:href="#DejaVuSans-72"/>
       <use xlink:href="#DejaVuSans-65" x="38.863281"/>
       <use xlink:href="#DejaVuSans-73" x="100.386719"/>
       <use xlink:href="#DejaVuSans-5f" x="152.486328"/>
       <use xlink:href="#DejaVuSans-62" x="202.486328"/>
       <use xlink:href="#DejaVuSans-6c" x="265.962891"/>
       <use xlink:href="#DejaVuSans-6f" x="293.746094"/>
       <use xlink:href="#DejaVuSans-63" x="354.927734"/>
       <use xlink:href="#DejaVuSans-6b" x="409.908203"/>
       <use xlink:href="#DejaVuSans-33" x="467.818359"/>
      </g>
     </g>
    </g>
    <g id="xtick_5">
     <g id="line2d_9">
      <path d="M 403.875 384.48 
L 403.875 51.84 
" clip-path="url(#pf7130037a1)" style="fill: none; stroke: #b0b0b0; stroke-width: 0.8; stroke-linecap: square"/>
     </g>
     <g id="line2d_10">
      <g>
       <use xlink:href="#mbd3bcef79f" x="403.875" y="384.48" style="stroke: #000000; stroke-width: 0.8"/>
      </g>
     </g>
     <g id="text_5">
      <!-- res_block4 -->
      <g transform="translate(377.302344 399.078438) scale(0.1 -0.1)">
       <defs>
        <path id="DejaVuSans-34" d="M 2419 4116 
L 825 1625 
L 2419 1625 
L 2419 4116 
z
M 2253 4666 
L 3047 4666 
L 3047 1625 
L 3713 1625 
L 3713 1100 
L 3047 1100 
L 3047 0 
L 2419 0 
L 2419 1100 
L 313 1100 
L 313 1709 
L 2253 4666 
z
" transform="scale(0.015625)"/>
       </defs>
       <use xlink:href="#DejaVuSans-72"/>
       <use xlink:href="#DejaVuSans-65" x="38.863281"/>
       <use xlink:href="#DejaVuSans-73" x="100.386719"/>
       <use xlink:href="#DejaVuSans-5f" x="152.486328"/>
       <use xlink:href="#DejaVuSans-62" x="202.486328"/>
       <use xlink:href="#DejaVuSans-6c" x="265.962891"/>
       <use xlink:href="#DejaVuSans-6f" x="293.746094"/>
       <use xlink:href="#DejaVuSans-63" x="354.927734"/>
       <use xlink:href="#DejaVuSans-6b" x="409.908203"/>
       <use xlink:href="#DejaVuSans-34" x="467.818359"/>
      </g>
     </g>
    </g>
    <g id="xtick_6">
     <g id="line2d_11">
      <path d="M 473.625 384.48 
L 473.625 51.84 
" clip-path="url(#pf7130037a1)" style="fill: none; stroke: #b0b0b0; stroke-width: 0.8; stroke-linecap: square"/>
     </g>
     <g id="line2d_12">
      <g>
       <use xlink:href="#mbd3bcef79f" x="473.625" y="384.48" style="stroke: #000000; stroke-width: 0.8"/>
      </g>
     </g>
     <g id="text_6">
      <!-- res_block5 -->
      <g transform="translate(447.052344 399.078438) scale(0.1 -0.1)">
       <defs>
        <path id="DejaVuSans-35" d="M 691 4666 
L 3169 4666 
L 3169 4134 
L 1269 4134 
L 1269 2991 
Q 1406 3038 1543 3061 
Q 1681 3084 1819 3084 
Q 2600 3084 3056 2656 
Q 3513 2228 3513 1497 
Q 3513 744 3044 326 
Q 2575 -91 1722 -91 
Q 1428 -91 1123 -41 
Q 819 9 494 109 
L 494 744 
Q 775 591 1075 516 
Q 1375 441 1709 441 
Q 2250 441 2565 725 
Q 2881 1009 2881 1497 
Q 2881 1984 2565 2268 
Q 2250 2553 1709 2553 
Q 1456 2553 1204 2497 
Q 953 2441 691 2322 
L 691 4666 
z
" transform="scale(0.015625)"/>
       </defs>
       <use xlink:href="#DejaVuSans-72"/>
       <use xlink:href="#DejaVuSans-65" x="38.863281"/>
       <use xlink:href="#DejaVuSans-73" x="100.386719"/>
       <use xlink:href="#DejaVuSans-5f" x="152.486328"/>
       <use xlink:href="#DejaVuSans-62" x="202.486328"/>
       <use xlink:href="#DejaVuSans-6c" x="265.962891"/>
       <use xlink:href="#DejaVuSans-6f" x="293.746094"/>
       <use xlink:href="#DejaVuSans-63" x="354.927734"/>
       <use xlink:href="#DejaVuSans-6b" x="409.908203"/>
       <use xlink:href="#DejaVuSans-35" x="467.818359"/>
      </g>
     </g>
    </g>
    <g id="xtick_7">
     <g id="line2d_13">
      <path d="M 543.375 384.48 
L 543.375 51.84 
" clip-path="url(#pf7130037a1)" style="fill: none; stroke: #b0b0b0; stroke-width: 0.8; stroke-linecap: square"/>
     </g>
     <g id="line2d_14">
      <g>
       <use xlink:href="#mbd3bcef79f" x="543.375" y="384.48" style="stroke: #000000; stroke-width: 0.8"/>
      </g>
     </g>
     <g id="text_7">
      <!-- res_block6 -->
      <g transform="translate(516.802344 399.078438) scale(0.1 -0.1)">
       <defs>
        <path id="DejaVuSans-36" d="M 2113 2584 
Q 1688 2584 1439 2293 
Q 1191 2003 1191 1497 
Q 1191 994 1439 701 
Q 1688 409 2113 409 
Q 2538 409 2786 701 
Q 3034 994 3034 1497 
Q 3034 2003 2786 2293 
Q 2538 2584 2113 2584 
z
M 3366 4563 
L 3366 3988 
Q 3128 4100 2886 4159 
Q 2644 4219 2406 4219 
Q 1781 4219 1451 3797 
Q 1122 3375 1075 2522 
Q 1259 2794 1537 2939 
Q 1816 3084 2150 3084 
Q 2853 3084 3261 2657 
Q 3669 2231 3669 1497 
Q 3669 778 3244 343 
Q 2819 -91 2113 -91 
Q 1303 -91 875 529 
Q 447 1150 447 2328 
Q 447 3434 972 4092 
Q 1497 4750 2381 4750 
Q 2619 4750 2861 4703 
Q 3103 4656 3366 4563 
z
" transform="scale(0.015625)"/>
       </defs>
       <use xlink:href="#DejaVuSans-72"/>
       <use xlink:href="#DejaVuSans-65" x="38.863281"/>
       <use xlink:href="#DejaVuSans-73" x="100.386719"/>
       <use xlink:href="#DejaVuSans-5f" x="152.486328"/>
       <use xlink:href="#DejaVuSans-62" x="202.486328"/>
       <use xlink:href="#DejaVuSans-6c" x="265.962891"/>
       <use xlink:href="#DejaVuSans-6f" x="293.746094"/>
       <use xlink:href="#DejaVuSans-63" x="354.927734"/>
       <use xlink:href="#DejaVuSans-6b" x="409.908203"/>
       <use xlink:href="#DejaVuSans-36" x="467.818359"/>
      </g>
     </g>
    </g>
    <g id="xtick_8">
     <g id="line2d_15">
      <path d="M 613.125 384.48 
L 613.125 51.84 
" clip-path="url(#pf7130037a1)" style="fill: none; stroke: #b0b0b0; stroke-width: 0.8; stroke-linecap: square"/>
     </g>
     <g id="line2d_16">
      <g>
       <use xlink:href="#mbd3bcef79f" x="613.125" y="384.48" style="stroke: #000000; stroke-width: 0.8"/>
      </g>
     </g>
     <g id="text_8">
      <!-- out -->
      <g transform="translate(604.936719 399.078438) scale(0.1 -0.1)">
       <defs>
        <path id="DejaVuSans-75" d="M 544 1381 
L 544 3500 
L 1119 3500 
L 1119 1403 
Q 1119 906 1312 657 
Q 1506 409 1894 409 
Q 2359 409 2629 706 
Q 2900 1003 2900 1516 
L 2900 3500 
L 3475 3500 
L 3475 0 
L 2900 0 
L 2900 538 
Q 2691 219 2414 64 
Q 2138 -91 1772 -91 
Q 1169 -91 856 284 
Q 544 659 544 1381 
z
M 1991 3584 
L 1991 3584 
z
" transform="scale(0.015625)"/>
        <path id="DejaVuSans-74" d="M 1172 4494 
L 1172 3500 
L 2356 3500 
L 2356 3053 
L 1172 3053 
L 1172 1153 
Q 1172 725 1289 603 
Q 1406 481 1766 481 
L 2356 481 
L 2356 0 
L 1766 0 
Q 1100 0 847 248 
Q 594 497 594 1153 
L 594 3053 
L 172 3053 
L 172 3500 
L 594 3500 
L 594 4494 
L 1172 4494 
z
" transform="scale(0.015625)"/>
       </defs>
       <use xlink:href="#DejaVuSans-6f"/>
       <use xlink:href="#DejaVuSans-75" x="61.181641"/>
       <use xlink:href="#DejaVuSans-74" x="124.560547"/>
      </g>
     </g>
    </g>
    <g id="text_9">
     <!-- Layers -->
     <g transform="translate(352.453906 413.034688) scale(0.1 -0.1)">
      <defs>
       <path id="DejaVuSans-4c" d="M 628 4666 
L 1259 4666 
L 1259 531 
L 3531 531 
L 3531 0 
L 628 0 
L 628 4666 
z
" transform="scale(0.015625)"/>
       <path id="DejaVuSans-61" d="M 2194 1759 
Q 1497 1759 1228 1600 
Q 959 1441 959 1056 
Q 959 750 1161 570 
Q 1363 391 1709 391 
Q 2188 391 2477 730 
Q 2766 1069 2766 1631 
L 2766 1759 
L 2194 1759 
z
M 3341 1997 
L 3341 0 
L 2766 0 
L 2766 531 
Q 2569 213 2275 61 
Q 1981 -91 1556 -91 
Q 1019 -91 701 211 
Q 384 513 384 1019 
Q 384 1609 779 1909 
Q 1175 2209 1959 2209 
L 2766 2209 
L 2766 2266 
Q 2766 2663 2505 2880 
Q 2244 3097 1772 3097 
Q 1472 3097 1187 3025 
Q 903 2953 641 2809 
L 641 3341 
Q 956 3463 1253 3523 
Q 1550 3584 1831 3584 
Q 2591 3584 2966 3190 
Q 3341 2797 3341 1997 
z
" transform="scale(0.015625)"/>
       <path id="DejaVuSans-79" d="M 2059 -325 
Q 1816 -950 1584 -1140 
Q 1353 -1331 966 -1331 
L 506 -1331 
L 506 -850 
L 844 -850 
Q 1081 -850 1212 -737 
Q 1344 -625 1503 -206 
L 1606 56 
L 191 3500 
L 800 3500 
L 1894 763 
L 2988 3500 
L 3597 3500 
L 2059 -325 
z
" transform="scale(0.015625)"/>
      </defs>
      <use xlink:href="#DejaVuSans-4c"/>
      <use xlink:href="#DejaVuSans-61" x="55.712891"/>
      <use xlink:href="#DejaVuSans-79" x="116.992188"/>
      <use xlink:href="#DejaVuSans-65" x="176.171875"/>
      <use xlink:href="#DejaVuSans-72" x="237.695312"/>
      <use xlink:href="#DejaVuSans-73" x="278.808594"/>
     </g>
    </g>
   </g>
   <g id="matplotlib.axis_2">
    <g id="ytick_1">
     <g id="line2d_17">
      <path d="M 90 364.684795 
L 648 364.684795 
" clip-path="url(#pf7130037a1)" style="fill: none; stroke: #b0b0b0; stroke-width: 0.8; stroke-linecap: square"/>
     </g>
     <g id="line2d_18">
      <defs>
       <path id="m867adcb2df" d="M 0 0 
L -3.5 0 
" style="stroke: #000000; stroke-width: 0.8"/>
      </defs>
      <g>
       <use xlink:href="#m867adcb2df" x="90" y="364.684795" style="stroke: #000000; stroke-width: 0.8"/>
      </g>
     </g>
     <g id="text_10">
      <!-- −0.02 -->
      <g transform="translate(52.354687 368.484014) scale(0.1 -0.1)">
       <defs>
        <path id="DejaVuSans-2212" d="M 678 2272 
L 4684 2272 
L 4684 1741 
L 678 1741 
L 678 2272 
z
" transform="scale(0.015625)"/>
        <path id="DejaVuSans-30" d="M 2034 4250 
Q 1547 4250 1301 3770 
Q 1056 3291 1056 2328 
Q 1056 1369 1301 889 
Q 1547 409 2034 409 
Q 2525 409 2770 889 
Q 3016 1369 3016 2328 
Q 3016 3291 2770 3770 
Q 2525 4250 2034 4250 
z
M 2034 4750 
Q 2819 4750 3233 4129 
Q 3647 3509 3647 2328 
Q 3647 1150 3233 529 
Q 2819 -91 2034 -91 
Q 1250 -91 836 529 
Q 422 1150 422 2328 
Q 422 3509 836 4129 
Q 1250 4750 2034 4750 
z
" transform="scale(0.015625)"/>
        <path id="DejaVuSans-2e" d="M 684 794 
L 1344 794 
L 1344 0 
L 684 0 
L 684 794 
z
" transform="scale(0.015625)"/>
       </defs>
       <use xlink:href="#DejaVuSans-2212"/>
       <use xlink:href="#DejaVuSans-30" x="83.789062"/>
       <use xlink:href="#DejaVuSans-2e" x="147.412109"/>
       <use xlink:href="#DejaVuSans-30" x="179.199219"/>
       <use xlink:href="#DejaVuSans-32" x="242.822266"/>
      </g>
     </g>
    </g>
    <g id="ytick_2">
     <g id="line2d_19">
      <path d="M 90 321.33238 
L 648 321.33238 
" clip-path="url(#pf7130037a1)" style="fill: none; stroke: #b0b0b0; stroke-width: 0.8; stroke-linecap: square"/>
     </g>
     <g id="line2d_20">
      <g>
       <use xlink:href="#m867adcb2df" x="90" y="321.33238" style="stroke: #000000; stroke-width: 0.8"/>
      </g>
     </g>
     <g id="text_11">
      <!-- 0.00 -->
      <g transform="translate(60.734375 325.131599) scale(0.1 -0.1)">
       <use xlink:href="#DejaVuSans-30"/>
       <use xlink:href="#DejaVuSans-2e" x="63.623047"/>
       <use xlink:href="#DejaVuSans-30" x="95.410156"/>
       <use xlink:href="#DejaVuSans-30" x="159.033203"/>
      </g>
     </g>
    </g>
    <g id="ytick_3">
     <g id="line2d_21">
      <path d="M 90 277.979965 
L 648 277.979965 
" clip-path="url(#pf7130037a1)" style="fill: none; stroke: #b0b0b0; stroke-width: 0.8; stroke-linecap: square"/>
     </g>
     <g id="line2d_22">
      <g>
       <use xlink:href="#m867adcb2df" x="90" y="277.979965" style="stroke: #000000; stroke-width: 0.8"/>
      </g>
     </g>
     <g id="text_12">
      <!-- 0.02 -->
      <g transform="translate(60.734375 281.779184) scale(0.1 -0.1)">
       <use xlink:href="#DejaVuSans-30"/>
       <use xlink:href="#DejaVuSans-2e" x="63.623047"/>
       <use xlink:href="#DejaVuSans-30" x="95.410156"/>
       <use xlink:href="#DejaVuSans-32" x="159.033203"/>
      </g>
     </g>
    </g>
    <g id="ytick_4">
     <g id="line2d_23">
      <path d="M 90 234.62755 
L 648 234.62755 
" clip-path="url(#pf7130037a1)" style="fill: none; stroke: #b0b0b0; stroke-width: 0.8; stroke-linecap: square"/>
     </g>
     <g id="line2d_24">
      <g>
       <use xlink:href="#m867adcb2df" x="90" y="234.62755" style="stroke: #000000; stroke-width: 0.8"/>
      </g>
     </g>
     <g id="text_13">
      <!-- 0.04 -->
      <g transform="translate(60.734375 238.426769) scale(0.1 -0.1)">
       <use xlink:href="#DejaVuSans-30"/>
       <use xlink:href="#DejaVuSans-2e" x="63.623047"/>
       <use xlink:href="#DejaVuSans-30" x="95.410156"/>
       <use xlink:href="#DejaVuSans-34" x="159.033203"/>
      </g>
     </g>
    </g>
    <g id="ytick_5">
     <g id="line2d_25">
      <path d="M 90 191.275135 
L 648 191.275135 
" clip-path="url(#pf7130037a1)" style="fill: none; stroke: #b0b0b0; stroke-width: 0.8; stroke-linecap: square"/>
     </g>
     <g id="line2d_26">
      <g>
       <use xlink:href="#m867adcb2df" x="90" y="191.275135" style="stroke: #000000; stroke-width: 0.8"/>
      </g>
     </g>
     <g id="text_14">
      <!-- 0.06 -->
      <g transform="translate(60.734375 195.074354) scale(0.1 -0.1)">
       <use xlink:href="#DejaVuSans-30"/>
       <use xlink:href="#DejaVuSans-2e" x="63.623047"/>
       <use xlink:href="#DejaVuSans-30" x="95.410156"/>
       <use xlink:href="#DejaVuSans-36" x="159.033203"/>
      </g>
     </g>
    </g>
    <g id="ytick_6">
     <g id="line2d_27">
      <path d="M 90 147.92272 
L 648 147.92272 
" clip-path="url(#pf7130037a1)" style="fill: none; stroke: #b0b0b0; stroke-width: 0.8; stroke-linecap: square"/>
     </g>
     <g id="line2d_28">
      <g>
       <use xlink:href="#m867adcb2df" x="90" y="147.92272" style="stroke: #000000; stroke-width: 0.8"/>
      </g>
     </g>
     <g id="text_15">
      <!-- 0.08 -->
      <g transform="translate(60.734375 151.721939) scale(0.1 -0.1)">
       <defs>
        <path id="DejaVuSans-38" d="M 2034 2216 
Q 1584 2216 1326 1975 
Q 1069 1734 1069 1313 
Q 1069 891 1326 650 
Q 1584 409 2034 409 
Q 2484 409 2743 651 
Q 3003 894 3003 1313 
Q 3003 1734 2745 1975 
Q 2488 2216 2034 2216 
z
M 1403 2484 
Q 997 2584 770 2862 
Q 544 3141 544 3541 
Q 544 4100 942 4425 
Q 1341 4750 2034 4750 
Q 2731 4750 3128 4425 
Q 3525 4100 3525 3541 
Q 3525 3141 3298 2862 
Q 3072 2584 2669 2484 
Q 3125 2378 3379 2068 
Q 3634 1759 3634 1313 
Q 3634 634 3220 271 
Q 2806 -91 2034 -91 
Q 1263 -91 848 271 
Q 434 634 434 1313 
Q 434 1759 690 2068 
Q 947 2378 1403 2484 
z
M 1172 3481 
Q 1172 3119 1398 2916 
Q 1625 2713 2034 2713 
Q 2441 2713 2670 2916 
Q 2900 3119 2900 3481 
Q 2900 3844 2670 4047 
Q 2441 4250 2034 4250 
Q 1625 4250 1398 4047 
Q 1172 3844 1172 3481 
z
" transform="scale(0.015625)"/>
       </defs>
       <use xlink:href="#DejaVuSans-30"/>
       <use xlink:href="#DejaVuSans-2e" x="63.623047"/>
       <use xlink:href="#DejaVuSans-30" x="95.410156"/>
       <use xlink:href="#DejaVuSans-38" x="159.033203"/>
      </g>
     </g>
    </g>
    <g id="ytick_7">
     <g id="line2d_29">
      <path d="M 90 104.570305 
L 648 104.570305 
" clip-path="url(#pf7130037a1)" style="fill: none; stroke: #b0b0b0; stroke-width: 0.8; stroke-linecap: square"/>
     </g>
     <g id="line2d_30">
      <g>
       <use xlink:href="#m867adcb2df" x="90" y="104.570305" style="stroke: #000000; stroke-width: 0.8"/>
      </g>
     </g>
     <g id="text_16">
      <!-- 0.10 -->
      <g transform="translate(60.734375 108.369524) scale(0.1 -0.1)">
       <use xlink:href="#DejaVuSans-30"/>
       <use xlink:href="#DejaVuSans-2e" x="63.623047"/>
       <use xlink:href="#DejaVuSans-31" x="95.410156"/>
       <use xlink:href="#DejaVuSans-30" x="159.033203"/>
      </g>
     </g>
    </g>
    <g id="ytick_8">
     <g id="line2d_31">
      <path d="M 90 61.21789 
L 648 61.21789 
" clip-path="url(#pf7130037a1)" style="fill: none; stroke: #b0b0b0; stroke-width: 0.8; stroke-linecap: square"/>
     </g>
     <g id="line2d_32">
      <g>
       <use xlink:href="#m867adcb2df" x="90" y="61.21789" style="stroke: #000000; stroke-width: 0.8"/>
      </g>
     </g>
     <g id="text_17">
      <!-- 0.12 -->
      <g transform="translate(60.734375 65.017108) scale(0.1 -0.1)">
       <use xlink:href="#DejaVuSans-30"/>
       <use xlink:href="#DejaVuSans-2e" x="63.623047"/>
       <use xlink:href="#DejaVuSans-31" x="95.410156"/>
       <use xlink:href="#DejaVuSans-32" x="159.033203"/>
      </g>
     </g>
    </g>
    <g id="text_18">
     <!-- RSA -->
     <g transform="translate(46.275 228.3225) rotate(-90) scale(0.1 -0.1)">
      <defs>
       <path id="DejaVuSans-52" d="M 2841 2188 
Q 3044 2119 3236 1894 
Q 3428 1669 3622 1275 
L 4263 0 
L 3584 0 
L 2988 1197 
Q 2756 1666 2539 1819 
Q 2322 1972 1947 1972 
L 1259 1972 
L 1259 0 
L 628 0 
L 628 4666 
L 2053 4666 
Q 2853 4666 3247 4331 
Q 3641 3997 3641 3322 
Q 3641 2881 3436 2590 
Q 3231 2300 2841 2188 
z
M 1259 4147 
L 1259 2491 
L 2053 2491 
Q 2509 2491 2742 2702 
Q 2975 2913 2975 3322 
Q 2975 3731 2742 3939 
Q 2509 4147 2053 4147 
L 1259 4147 
z
" transform="scale(0.015625)"/>
       <path id="DejaVuSans-53" d="M 3425 4513 
L 3425 3897 
Q 3066 4069 2747 4153 
Q 2428 4238 2131 4238 
Q 1616 4238 1336 4038 
Q 1056 3838 1056 3469 
Q 1056 3159 1242 3001 
Q 1428 2844 1947 2747 
L 2328 2669 
Q 3034 2534 3370 2195 
Q 3706 1856 3706 1288 
Q 3706 609 3251 259 
Q 2797 -91 1919 -91 
Q 1588 -91 1214 -16 
Q 841 59 441 206 
L 441 856 
Q 825 641 1194 531 
Q 1563 422 1919 422 
Q 2459 422 2753 634 
Q 3047 847 3047 1241 
Q 3047 1584 2836 1778 
Q 2625 1972 2144 2069 
L 1759 2144 
Q 1053 2284 737 2584 
Q 422 2884 422 3419 
Q 422 4038 858 4394 
Q 1294 4750 2059 4750 
Q 2388 4750 2728 4690 
Q 3069 4631 3425 4513 
z
" transform="scale(0.015625)"/>
       <path id="DejaVuSans-41" d="M 2188 4044 
L 1331 1722 
L 3047 1722 
L 2188 4044 
z
M 1831 4666 
L 2547 4666 
L 4325 0 
L 3669 0 
L 3244 1197 
L 1141 1197 
L 716 0 
L 50 0 
L 1831 4666 
z
" transform="scale(0.015625)"/>
      </defs>
      <use xlink:href="#DejaVuSans-52"/>
      <use xlink:href="#DejaVuSans-53" x="69.482422"/>
      <use xlink:href="#DejaVuSans-41" x="134.833984"/>
     </g>
    </g>
   </g>
   <g id="line2d_33">
    <defs>
     <path id="ma2bfc3cd8d" d="M 0 1.5 
C 0.397805 1.5 0.77937 1.341951 1.06066 1.06066 
C 1.341951 0.77937 1.5 0.397805 1.5 0 
C 1.5 -0.397805 1.341951 -0.77937 1.06066 -1.06066 
C 0.77937 -1.341951 0.397805 -1.5 0 -1.5 
C -0.397805 -1.5 -0.77937 -1.341951 -1.06066 -1.06066 
C -1.341951 -0.77937 -1.5 -0.397805 -1.5 0 
C -1.5 0.397805 -1.341951 0.77937 -1.06066 1.06066 
C -0.77937 1.341951 -0.397805 1.5 0 1.5 
z
" style="stroke: #1f78b4; stroke-width: 2.025"/>
    </defs>
    <g clip-path="url(#pf7130037a1)">
     <use xlink:href="#ma2bfc3cd8d" x="110.925" y="177.141877" style="fill: #1f78b4; stroke: #1f78b4; stroke-width: 2.025"/>
     <use xlink:href="#ma2bfc3cd8d" x="599.175" y="200.407366" style="fill: #1f78b4; stroke: #1f78b4; stroke-width: 2.025"/>
    </g>
   </g>
   <g id="line2d_34">
    <path d="M 107.4375 194.180694 
L 114.4125 194.180694 
M 110.925 194.180694 
L 110.925 157.466733 
M 107.4375 157.466733 
L 114.4125 157.466733 
" clip-path="url(#pf7130037a1)" style="fill: none; stroke: #1f78b4; stroke-width: 2; stroke-linecap: square"/>
   </g>
   <g id="line2d_35">
    <path clip-path="url(#pf7130037a1)" style="fill: none; stroke: #1f78b4; stroke-width: 2; stroke-linecap: square"/>
   </g>
   <g id="line2d_36">
    <path clip-path="url(#pf7130037a1)" style="fill: none; stroke: #1f78b4; stroke-width: 2; stroke-linecap: square"/>
   </g>
   <g id="line2d_37">
    <path clip-path="url(#pf7130037a1)" style="fill: none; stroke: #1f78b4; stroke-width: 2; stroke-linecap: square"/>
   </g>
   <g id="line2d_38">
    <path clip-path="url(#pf7130037a1)" style="fill: none; stroke: #1f78b4; stroke-width: 2; stroke-linecap: square"/>
   </g>
   <g id="line2d_39">
    <path clip-path="url(#pf7130037a1)" style="fill: none; stroke: #1f78b4; stroke-width: 2; stroke-linecap: square"/>
   </g>
   <g id="line2d_40">
    <path clip-path="url(#pf7130037a1)" style="fill: none; stroke: #1f78b4; stroke-width: 2; stroke-linecap: square"/>
   </g>
   <g id="line2d_41">
    <path d="M 595.6875 265.708143 
L 602.6625 265.708143 
M 599.175 265.708143 
L 599.175 127.441838 
M 595.6875 127.441838 
L 602.6625 127.441838 
" clip-path="url(#pf7130037a1)" style="fill: none; stroke: #1f78b4; stroke-width: 2; stroke-linecap: square"/>
   </g>
   <g id="line2d_42">
    <g clip-path="url(#pf7130037a1)">
     <use xlink:href="#ma2bfc3cd8d" x="186.255" y="141.148755" style="fill: #1f78b4; stroke: #1f78b4; stroke-width: 2.025"/>
     <use xlink:href="#ma2bfc3cd8d" x="256.005" y="170.739156" style="fill: #1f78b4; stroke: #1f78b4; stroke-width: 2.025"/>
     <use xlink:href="#ma2bfc3cd8d" x="325.755" y="180.428972" style="fill: #1f78b4; stroke: #1f78b4; stroke-width: 2.025"/>
     <use xlink:href="#ma2bfc3cd8d" x="395.505" y="193.640852" style="fill: #1f78b4; stroke: #1f78b4; stroke-width: 2.025"/>
     <use xlink:href="#ma2bfc3cd8d" x="465.255" y="200.223214" style="fill: #1f78b4; stroke: #1f78b4; stroke-width: 2.025"/>
     <use xlink:href="#ma2bfc3cd8d" x="535.005" y="210.517769" style="fill: #1f78b4; stroke: #1f78b4; stroke-width: 2.025"/>
    </g>
   </g>
   <g id="line2d_43">
    <path clip-path="url(#pf7130037a1)" style="fill: none; stroke: #1f78b4; stroke-width: 2; stroke-linecap: square"/>
   </g>
   <g id="line2d_44">
    <path d="M 182.7675 215.337511 
L 189.7425 215.337511 
M 186.255 215.337511 
L 186.255 66.96 
M 182.7675 66.96 
L 189.7425 66.96 
" clip-path="url(#pf7130037a1)" style="fill: none; stroke: #1f78b4; stroke-width: 2; stroke-linecap: square"/>
   </g>
   <g id="line2d_45">
    <path d="M 252.5175 235.031723 
L 259.4925 235.031723 
M 256.005 235.031723 
L 256.005 102.609002 
M 252.5175 102.609002 
L 259.4925 102.609002 
" clip-path="url(#pf7130037a1)" style="fill: none; stroke: #1f78b4; stroke-width: 2; stroke-linecap: square"/>
   </g>
   <g id="line2d_46">
    <path d="M 322.2675 261.008198 
L 329.2425 261.008198 
M 325.755 261.008198 
L 325.755 90.947082 
M 322.2675 90.947082 
L 329.2425 90.947082 
" clip-path="url(#pf7130037a1)" style="fill: none; stroke: #1f78b4; stroke-width: 2; stroke-linecap: square"/>
   </g>
   <g id="line2d_47">
    <path d="M 392.0175 267.680273 
L 398.9925 267.680273 
M 395.505 267.680273 
L 395.505 105.249582 
M 392.0175 105.249582 
L 398.9925 105.249582 
" clip-path="url(#pf7130037a1)" style="fill: none; stroke: #1f78b4; stroke-width: 2; stroke-linecap: square"/>
   </g>
   <g id="line2d_48">
    <path d="M 461.7675 270.262818 
L 468.7425 270.262818 
M 465.255 270.262818 
L 465.255 123.186718 
M 461.7675 123.186718 
L 468.7425 123.186718 
" clip-path="url(#pf7130037a1)" style="fill: none; stroke: #1f78b4; stroke-width: 2; stroke-linecap: square"/>
   </g>
   <g id="line2d_49">
    <path d="M 531.5175 277.437244 
L 538.4925 277.437244 
M 535.005 277.437244 
L 535.005 120.082037 
M 531.5175 120.082037 
L 538.4925 120.082037 
" clip-path="url(#pf7130037a1)" style="fill: none; stroke: #1f78b4; stroke-width: 2; stroke-linecap: square"/>
   </g>
   <g id="line2d_50">
    <path clip-path="url(#pf7130037a1)" style="fill: none; stroke: #1f78b4; stroke-width: 2; stroke-linecap: square"/>
   </g>
   <g id="line2d_51">
    <defs>
     <path id="m2baead7428" d="M 0 1.5 
C 0.397805 1.5 0.77937 1.341951 1.06066 1.06066 
C 1.341951 0.77937 1.5 0.397805 1.5 0 
C 1.5 -0.397805 1.341951 -0.77937 1.06066 -1.06066 
C 0.77937 -1.341951 0.397805 -1.5 0 -1.5 
C -0.397805 -1.5 -0.77937 -1.341951 -1.06066 -1.06066 
C -1.341951 -0.77937 -1.5 -0.397805 -1.5 0 
C -1.5 0.397805 -1.341951 0.77937 -1.06066 1.06066 
C -0.77937 1.341951 -0.397805 1.5 0 1.5 
z
" style="stroke: #a6cee3; stroke-width: 2.025"/>
    </defs>
    <g clip-path="url(#pf7130037a1)">
     <use xlink:href="#m2baead7428" x="191.835" y="221.684144" style="fill: #a6cee3; stroke: #a6cee3; stroke-width: 2.025"/>
     <use xlink:href="#m2baead7428" x="261.585" y="221.25545" style="fill: #a6cee3; stroke: #a6cee3; stroke-width: 2.025"/>
     <use xlink:href="#m2baead7428" x="331.335" y="233.997393" style="fill: #a6cee3; stroke: #a6cee3; stroke-width: 2.025"/>
     <use xlink:href="#m2baead7428" x="401.085" y="220.882136" style="fill: #a6cee3; stroke: #a6cee3; stroke-width: 2.025"/>
     <use xlink:href="#m2baead7428" x="470.835" y="220.753515" style="fill: #a6cee3; stroke: #a6cee3; stroke-width: 2.025"/>
     <use xlink:href="#m2baead7428" x="540.585" y="247.731466" style="fill: #a6cee3; stroke: #a6cee3; stroke-width: 2.025"/>
    </g>
   </g>
   <g id="line2d_52">
    <path clip-path="url(#pf7130037a1)" style="fill: none; stroke: #a6cee3; stroke-width: 2; stroke-linecap: square"/>
   </g>
   <g id="line2d_53">
    <path d="M 188.3475 243.434855 
L 195.3225 243.434855 
M 191.835 243.434855 
L 191.835 201.403813 
M 188.3475 201.403813 
L 195.3225 201.403813 
" clip-path="url(#pf7130037a1)" style="fill: none; stroke: #a6cee3; stroke-width: 2; stroke-linecap: square"/>
   </g>
   <g id="line2d_54">
    <path d="M 258.0975 265.924791 
L 265.0725 265.924791 
M 261.585 265.924791 
L 261.585 175.71824 
M 258.0975 175.71824 
L 265.0725 175.71824 
" clip-path="url(#pf7130037a1)" style="fill: none; stroke: #a6cee3; stroke-width: 2; stroke-linecap: square"/>
   </g>
   <g id="line2d_55">
    <path d="M 327.8475 283.187098 
L 334.8225 283.187098 
M 331.335 283.187098 
L 331.335 187.537315 
M 327.8475 187.537315 
L 334.8225 187.537315 
" clip-path="url(#pf7130037a1)" style="fill: none; stroke: #a6cee3; stroke-width: 2; stroke-linecap: square"/>
   </g>
   <g id="line2d_56">
    <path d="M 397.5975 252.632229 
L 404.5725 252.632229 
M 401.085 252.632229 
L 401.085 185.865498 
M 397.5975 185.865498 
L 404.5725 185.865498 
" clip-path="url(#pf7130037a1)" style="fill: none; stroke: #a6cee3; stroke-width: 2; stroke-linecap: square"/>
   </g>
   <g id="line2d_57">
    <path d="M 467.3475 246.963463 
L 474.3225 246.963463 
M 470.835 246.963463 
L 470.835 192.586015 
M 467.3475 192.586015 
L 474.3225 192.586015 
" clip-path="url(#pf7130037a1)" style="fill: none; stroke: #a6cee3; stroke-width: 2; stroke-linecap: square"/>
   </g>
   <g id="line2d_58">
    <path d="M 537.0975 291.87599 
L 544.0725 291.87599 
M 540.585 291.87599 
L 540.585 203.533286 
M 537.0975 203.533286 
L 544.0725 203.533286 
" clip-path="url(#pf7130037a1)" style="fill: none; stroke: #a6cee3; stroke-width: 2; stroke-linecap: square"/>
   </g>
   <g id="line2d_59">
    <path clip-path="url(#pf7130037a1)" style="fill: none; stroke: #a6cee3; stroke-width: 2; stroke-linecap: square"/>
   </g>
   <g id="line2d_60">
    <defs>
     <path id="mcaa1b2328d" d="M 0 1.5 
C 0.397805 1.5 0.77937 1.341951 1.06066 1.06066 
C 1.341951 0.77937 1.5 0.397805 1.5 0 
C 1.5 -0.397805 1.341951 -0.77937 1.06066 -1.06066 
C 0.77937 -1.341951 0.397805 -1.5 0 -1.5 
C -0.397805 -1.5 -0.77937 -1.341951 -1.06066 -1.06066 
C -1.341951 -0.77937 -1.5 -0.397805 -1.5 0 
C -1.5 0.397805 -1.341951 0.77937 -1.06066 1.06066 
C -0.77937 1.341951 -0.397805 1.5 0 1.5 
z
" style="stroke: #33a02c; stroke-width: 2.025"/>
    </defs>
    <g clip-path="url(#pf7130037a1)">
     <use xlink:href="#mcaa1b2328d" x="127.665" y="207.503498" style="fill: #33a02c; stroke: #33a02c; stroke-width: 2.025"/>
     <use xlink:href="#mcaa1b2328d" x="615.915" y="322.452047" style="fill: #33a02c; stroke: #33a02c; stroke-width: 2.025"/>
    </g>
   </g>
   <g id="line2d_61">
    <path d="M 124.1775 218.252542 
L 131.1525 218.252542 
M 127.665 218.252542 
L 127.665 191.737714 
M 124.1775 191.737714 
L 131.1525 191.737714 
" clip-path="url(#pf7130037a1)" style="fill: none; stroke: #33a02c; stroke-width: 2; stroke-linecap: square"/>
   </g>
   <g id="line2d_62">
    <path clip-path="url(#pf7130037a1)" style="fill: none; stroke: #33a02c; stroke-width: 2; stroke-linecap: square"/>
   </g>
   <g id="line2d_63">
    <path clip-path="url(#pf7130037a1)" style="fill: none; stroke: #33a02c; stroke-width: 2; stroke-linecap: square"/>
   </g>
   <g id="line2d_64">
    <path clip-path="url(#pf7130037a1)" style="fill: none; stroke: #33a02c; stroke-width: 2; stroke-linecap: square"/>
   </g>
   <g id="line2d_65">
    <path clip-path="url(#pf7130037a1)" style="fill: none; stroke: #33a02c; stroke-width: 2; stroke-linecap: square"/>
   </g>
   <g id="line2d_66">
    <path clip-path="url(#pf7130037a1)" style="fill: none; stroke: #33a02c; stroke-width: 2; stroke-linecap: square"/>
   </g>
   <g id="line2d_67">
    <path clip-path="url(#pf7130037a1)" style="fill: none; stroke: #33a02c; stroke-width: 2; stroke-linecap: square"/>
   </g>
   <g id="line2d_68">
    <path d="M 612.4275 366.881422 
L 619.4025 366.881422 
M 615.915 366.881422 
L 615.915 279.612839 
M 612.4275 279.612839 
L 619.4025 279.612839 
" clip-path="url(#pf7130037a1)" style="fill: none; stroke: #33a02c; stroke-width: 2; stroke-linecap: square"/>
   </g>
   <g id="line2d_69">
    <g clip-path="url(#pf7130037a1)">
     <use xlink:href="#mcaa1b2328d" x="202.995" y="229.610788" style="fill: #33a02c; stroke: #33a02c; stroke-width: 2.025"/>
     <use xlink:href="#mcaa1b2328d" x="272.745" y="256.885714" style="fill: #33a02c; stroke: #33a02c; stroke-width: 2.025"/>
     <use xlink:href="#mcaa1b2328d" x="342.495" y="269.492644" style="fill: #33a02c; stroke: #33a02c; stroke-width: 2.025"/>
     <use xlink:href="#mcaa1b2328d" x="412.245" y="263.244499" style="fill: #33a02c; stroke: #33a02c; stroke-width: 2.025"/>
     <use xlink:href="#mcaa1b2328d" x="481.995" y="248.09479" style="fill: #33a02c; stroke: #33a02c; stroke-width: 2.025"/>
     <use xlink:href="#mcaa1b2328d" x="551.745" y="238.369424" style="fill: #33a02c; stroke: #33a02c; stroke-width: 2.025"/>
    </g>
   </g>
   <g id="line2d_70">
    <path clip-path="url(#pf7130037a1)" style="fill: none; stroke: #33a02c; stroke-width: 2; stroke-linecap: square"/>
   </g>
   <g id="line2d_71">
    <path d="M 199.5075 282.058806 
L 206.4825 282.058806 
M 202.995 282.058806 
L 202.995 181.401472 
M 199.5075 181.401472 
L 206.4825 181.401472 
" clip-path="url(#pf7130037a1)" style="fill: none; stroke: #33a02c; stroke-width: 2; stroke-linecap: square"/>
   </g>
   <g id="line2d_72">
    <path d="M 269.2575 313.30275 
L 276.2325 313.30275 
M 272.745 313.30275 
L 272.745 202.397783 
M 269.2575 202.397783 
L 276.2325 202.397783 
" clip-path="url(#pf7130037a1)" style="fill: none; stroke: #33a02c; stroke-width: 2; stroke-linecap: square"/>
   </g>
   <g id="line2d_73">
    <path d="M 339.0075 317.922668 
L 345.9825 317.922668 
M 342.495 317.922668 
L 342.495 218.402902 
M 339.0075 218.402902 
L 345.9825 218.402902 
" clip-path="url(#pf7130037a1)" style="fill: none; stroke: #33a02c; stroke-width: 2; stroke-linecap: square"/>
   </g>
   <g id="line2d_74">
    <path d="M 408.7575 319.268104 
L 415.7325 319.268104 
M 412.245 319.268104 
L 412.245 208.409236 
M 408.7575 208.409236 
L 415.7325 208.409236 
" clip-path="url(#pf7130037a1)" style="fill: none; stroke: #33a02c; stroke-width: 2; stroke-linecap: square"/>
   </g>
   <g id="line2d_75">
    <path d="M 478.5075 302.144301 
L 485.4825 302.144301 
M 481.995 302.144301 
L 481.995 184.008239 
M 478.5075 184.008239 
L 485.4825 184.008239 
" clip-path="url(#pf7130037a1)" style="fill: none; stroke: #33a02c; stroke-width: 2; stroke-linecap: square"/>
   </g>
   <g id="line2d_76">
    <path d="M 548.2575 298.747509 
L 555.2325 298.747509 
M 551.745 298.747509 
L 551.745 173.376445 
M 548.2575 173.376445 
L 555.2325 173.376445 
" clip-path="url(#pf7130037a1)" style="fill: none; stroke: #33a02c; stroke-width: 2; stroke-linecap: square"/>
   </g>
   <g id="line2d_77">
    <path clip-path="url(#pf7130037a1)" style="fill: none; stroke: #33a02c; stroke-width: 2; stroke-linecap: square"/>
   </g>
   <g id="line2d_78">
    <defs>
     <path id="mf1975afe5c" d="M 0 1.5 
C 0.397805 1.5 0.77937 1.341951 1.06066 1.06066 
C 1.341951 0.77937 1.5 0.397805 1.5 0 
C 1.5 -0.397805 1.341951 -0.77937 1.06066 -1.06066 
C 0.77937 -1.341951 0.397805 -1.5 0 -1.5 
C -0.397805 -1.5 -0.77937 -1.341951 -1.06066 -1.06066 
C -1.341951 -0.77937 -1.5 -0.397805 -1.5 0 
C -1.5 0.397805 -1.341951 0.77937 -1.06066 1.06066 
C -0.77937 1.341951 -0.397805 1.5 0 1.5 
z
" style="stroke: #b2df8a; stroke-width: 2.025"/>
    </defs>
    <g clip-path="url(#pf7130037a1)">
     <use xlink:href="#mf1975afe5c" x="208.575" y="246.493477" style="fill: #b2df8a; stroke: #b2df8a; stroke-width: 2.025"/>
     <use xlink:href="#mf1975afe5c" x="278.325" y="270.642095" style="fill: #b2df8a; stroke: #b2df8a; stroke-width: 2.025"/>
     <use xlink:href="#mf1975afe5c" x="348.075" y="291.106792" style="fill: #b2df8a; stroke: #b2df8a; stroke-width: 2.025"/>
     <use xlink:href="#mf1975afe5c" x="417.825" y="289.514772" style="fill: #b2df8a; stroke: #b2df8a; stroke-width: 2.025"/>
     <use xlink:href="#mf1975afe5c" x="487.575" y="316.369626" style="fill: #b2df8a; stroke: #b2df8a; stroke-width: 2.025"/>
     <use xlink:href="#mf1975afe5c" x="557.325" y="323.262025" style="fill: #b2df8a; stroke: #b2df8a; stroke-width: 2.025"/>
    </g>
   </g>
   <g id="line2d_79">
    <path clip-path="url(#pf7130037a1)" style="fill: none; stroke: #b2df8a; stroke-width: 2; stroke-linecap: square"/>
   </g>
   <g id="line2d_80">
    <path d="M 205.0875 278.49312 
L 212.0625 278.49312 
M 208.575 278.49312 
L 208.575 219.605487 
M 205.0875 219.605487 
L 212.0625 219.605487 
" clip-path="url(#pf7130037a1)" style="fill: none; stroke: #b2df8a; stroke-width: 2; stroke-linecap: square"/>
   </g>
   <g id="line2d_81">
    <path d="M 274.8375 295.977133 
L 281.8125 295.977133 
M 278.325 295.977133 
L 278.325 246.861384 
M 274.8375 246.861384 
L 281.8125 246.861384 
" clip-path="url(#pf7130037a1)" style="fill: none; stroke: #b2df8a; stroke-width: 2; stroke-linecap: square"/>
   </g>
   <g id="line2d_82">
    <path d="M 344.5875 313.929039 
L 351.5625 313.929039 
M 348.075 313.929039 
L 348.075 266.623047 
M 344.5875 266.623047 
L 351.5625 266.623047 
" clip-path="url(#pf7130037a1)" style="fill: none; stroke: #b2df8a; stroke-width: 2; stroke-linecap: square"/>
   </g>
   <g id="line2d_83">
    <path d="M 414.3375 337.253787 
L 421.3125 337.253787 
M 417.825 337.253787 
L 417.825 232.768787 
M 414.3375 232.768787 
L 421.3125 232.768787 
" clip-path="url(#pf7130037a1)" style="fill: none; stroke: #b2df8a; stroke-width: 2; stroke-linecap: square"/>
   </g>
   <g id="line2d_84">
    <path d="M 484.0875 367.97878 
L 491.0625 367.97878 
M 487.575 367.97878 
L 487.575 264.760473 
M 484.0875 264.760473 
L 491.0625 264.760473 
" clip-path="url(#pf7130037a1)" style="fill: none; stroke: #b2df8a; stroke-width: 2; stroke-linecap: square"/>
   </g>
   <g id="line2d_85">
    <path d="M 553.8375 369.36 
L 560.8125 369.36 
M 557.325 369.36 
L 557.325 275.930444 
M 553.8375 275.930444 
L 560.8125 275.930444 
" clip-path="url(#pf7130037a1)" style="fill: none; stroke: #b2df8a; stroke-width: 2; stroke-linecap: square"/>
   </g>
   <g id="line2d_86">
    <path clip-path="url(#pf7130037a1)" style="fill: none; stroke: #b2df8a; stroke-width: 2; stroke-linecap: square"/>
   </g>
   <g id="line2d_87"/>
   <g id="line2d_88"/>
   <g id="line2d_89"/>
   <g id="line2d_90"/>
   <g id="line2d_91"/>
   <g id="line2d_92"/>
   <g id="patch_3">
    <path d="M 90 384.48 
L 90 51.84 
" style="fill: none; stroke: #000000; stroke-width: 0.8; stroke-linejoin: miter; stroke-linecap: square"/>
   </g>
   <g id="patch_4">
    <path d="M 648 384.48 
L 648 51.84 
" style="fill: none; stroke: #000000; stroke-width: 0.8; stroke-linejoin: miter; stroke-linecap: square"/>
   </g>
   <g id="patch_5">
    <path d="M 90 384.48 
L 648 384.48 
" style="fill: none; stroke: #000000; stroke-width: 0.8; stroke-linejoin: miter; stroke-linecap: square"/>
   </g>
   <g id="patch_6">
    <path d="M 90 51.84 
L 648 51.84 
" style="fill: none; stroke: #000000; stroke-width: 0.8; stroke-linejoin: miter; stroke-linecap: square"/>
   </g>
   <g id="legend_1">
    <g id="patch_7">
     <path d="M 97 379.48 
L 195.159375 379.48 
Q 197.159375 379.48 197.159375 377.48 
L 197.159375 275.733125 
Q 197.159375 273.733125 195.159375 273.733125 
L 97 273.733125 
Q 95 273.733125 95 275.733125 
L 95 377.48 
Q 95 379.48 97 379.48 
z
" style="fill: #ffffff; opacity: 0.8; stroke: #cccccc; stroke-linejoin: miter"/>
    </g>
    <g id="text_19">
     <!-- Model -->
     <g transform="translate(131.066406 285.331563) scale(0.1 -0.1)">
      <defs>
       <path id="DejaVuSans-4d" d="M 628 4666 
L 1569 4666 
L 2759 1491 
L 3956 4666 
L 4897 4666 
L 4897 0 
L 4281 0 
L 4281 4097 
L 3078 897 
L 2444 897 
L 1241 4097 
L 1241 0 
L 628 0 
L 628 4666 
z
" transform="scale(0.015625)"/>
       <path id="DejaVuSans-64" d="M 2906 2969 
L 2906 4863 
L 3481 4863 
L 3481 0 
L 2906 0 
L 2906 525 
Q 2725 213 2448 61 
Q 2172 -91 1784 -91 
Q 1150 -91 751 415 
Q 353 922 353 1747 
Q 353 2572 751 3078 
Q 1150 3584 1784 3584 
Q 2172 3584 2448 3432 
Q 2725 3281 2906 2969 
z
M 947 1747 
Q 947 1113 1208 752 
Q 1469 391 1925 391 
Q 2381 391 2643 752 
Q 2906 1113 2906 1747 
Q 2906 2381 2643 2742 
Q 2381 3103 1925 3103 
Q 1469 3103 1208 2742 
Q 947 2381 947 1747 
z
" transform="scale(0.015625)"/>
      </defs>
      <use xlink:href="#DejaVuSans-4d"/>
      <use xlink:href="#DejaVuSans-6f" x="86.279297"/>
      <use xlink:href="#DejaVuSans-64" x="147.460938"/>
      <use xlink:href="#DejaVuSans-65" x="210.9375"/>
      <use xlink:href="#DejaVuSans-6c" x="272.460938"/>
     </g>
    </g>
    <g id="line2d_93">
     <g>
      <use xlink:href="#ma2bfc3cd8d" x="109" y="296.509688" style="fill: #1f78b4; stroke: #1f78b4; stroke-width: 2.025"/>
     </g>
    </g>
    <g id="text_20">
     <!-- Rat -->
     <g transform="translate(127 300.009688) scale(0.1 -0.1)">
      <use xlink:href="#DejaVuSans-52"/>
      <use xlink:href="#DejaVuSans-61" x="67.232422"/>
      <use xlink:href="#DejaVuSans-74" x="128.511719"/>
     </g>
    </g>
    <g id="line2d_94">
     <g>
      <use xlink:href="#ma2bfc3cd8d" x="109" y="311.187813" style="fill: #1f78b4; stroke: #1f78b4; stroke-width: 2.025"/>
     </g>
    </g>
    <g id="text_21">
     <!-- Rat P1 -->
     <g transform="translate(127 314.687813) scale(0.1 -0.1)">
      <defs>
       <path id="DejaVuSans-20" transform="scale(0.015625)"/>
       <path id="DejaVuSans-50" d="M 1259 4147 
L 1259 2394 
L 2053 2394 
Q 2494 2394 2734 2622 
Q 2975 2850 2975 3272 
Q 2975 3691 2734 3919 
Q 2494 4147 2053 4147 
L 1259 4147 
z
M 628 4666 
L 2053 4666 
Q 2838 4666 3239 4311 
Q 3641 3956 3641 3272 
Q 3641 2581 3239 2228 
Q 2838 1875 2053 1875 
L 1259 1875 
L 1259 0 
L 628 0 
L 628 4666 
z
" transform="scale(0.015625)"/>
      </defs>
      <use xlink:href="#DejaVuSans-52"/>
      <use xlink:href="#DejaVuSans-61" x="67.232422"/>
      <use xlink:href="#DejaVuSans-74" x="128.511719"/>
      <use xlink:href="#DejaVuSans-20" x="167.720703"/>
      <use xlink:href="#DejaVuSans-50" x="199.507812"/>
      <use xlink:href="#DejaVuSans-31" x="259.810547"/>
     </g>
    </g>
    <g id="line2d_95">
     <g>
      <use xlink:href="#m2baead7428" x="109" y="325.865938" style="fill: #a6cee3; stroke: #a6cee3; stroke-width: 2.025"/>
     </g>
    </g>
    <g id="text_22">
     <!-- Rat P2 -->
     <g transform="translate(127 329.365938) scale(0.1 -0.1)">
      <use xlink:href="#DejaVuSans-52"/>
      <use xlink:href="#DejaVuSans-61" x="67.232422"/>
      <use xlink:href="#DejaVuSans-74" x="128.511719"/>
      <use xlink:href="#DejaVuSans-20" x="167.720703"/>
      <use xlink:href="#DejaVuSans-50" x="199.507812"/>
      <use xlink:href="#DejaVuSans-32" x="259.810547"/>
     </g>
    </g>
    <g id="line2d_96">
     <g>
      <use xlink:href="#mcaa1b2328d" x="109" y="340.544063" style="fill: #33a02c; stroke: #33a02c; stroke-width: 2.025"/>
     </g>
    </g>
    <g id="text_23">
     <!-- Treeshrew -->
     <g transform="translate(127 344.044063) scale(0.1 -0.1)">
      <defs>
       <path id="DejaVuSans-54" d="M -19 4666 
L 3928 4666 
L 3928 4134 
L 2272 4134 
L 2272 0 
L 1638 0 
L 1638 4134 
L -19 4134 
L -19 4666 
z
" transform="scale(0.015625)"/>
       <path id="DejaVuSans-68" d="M 3513 2113 
L 3513 0 
L 2938 0 
L 2938 2094 
Q 2938 2591 2744 2837 
Q 2550 3084 2163 3084 
Q 1697 3084 1428 2787 
Q 1159 2491 1159 1978 
L 1159 0 
L 581 0 
L 581 4863 
L 1159 4863 
L 1159 2956 
Q 1366 3272 1645 3428 
Q 1925 3584 2291 3584 
Q 2894 3584 3203 3211 
Q 3513 2838 3513 2113 
z
" transform="scale(0.015625)"/>
       <path id="DejaVuSans-77" d="M 269 3500 
L 844 3500 
L 1563 769 
L 2278 3500 
L 2956 3500 
L 3675 769 
L 4391 3500 
L 4966 3500 
L 4050 0 
L 3372 0 
L 2619 2869 
L 1863 0 
L 1184 0 
L 269 3500 
z
" transform="scale(0.015625)"/>
      </defs>
      <use xlink:href="#DejaVuSans-54"/>
      <use xlink:href="#DejaVuSans-72" x="46.333984"/>
      <use xlink:href="#DejaVuSans-65" x="85.197266"/>
      <use xlink:href="#DejaVuSans-65" x="146.720703"/>
      <use xlink:href="#DejaVuSans-73" x="208.244141"/>
      <use xlink:href="#DejaVuSans-68" x="260.34375"/>
      <use xlink:href="#DejaVuSans-72" x="323.722656"/>
      <use xlink:href="#DejaVuSans-65" x="362.585938"/>
      <use xlink:href="#DejaVuSans-77" x="424.109375"/>
     </g>
    </g>
    <g id="line2d_97">
     <g>
      <use xlink:href="#mcaa1b2328d" x="109" y="355.222188" style="fill: #33a02c; stroke: #33a02c; stroke-width: 2.025"/>
     </g>
    </g>
    <g id="text_24">
     <!-- Treeshrew P1 -->
     <g transform="translate(127 358.722188) scale(0.1 -0.1)">
      <use xlink:href="#DejaVuSans-54"/>
      <use xlink:href="#DejaVuSans-72" x="46.333984"/>
      <use xlink:href="#DejaVuSans-65" x="85.197266"/>
      <use xlink:href="#DejaVuSans-65" x="146.720703"/>
      <use xlink:href="#DejaVuSans-73" x="208.244141"/>
      <use xlink:href="#DejaVuSans-68" x="260.34375"/>
      <use xlink:href="#DejaVuSans-72" x="323.722656"/>
      <use xlink:href="#DejaVuSans-65" x="362.585938"/>
      <use xlink:href="#DejaVuSans-77" x="424.109375"/>
      <use xlink:href="#DejaVuSans-20" x="505.896484"/>
      <use xlink:href="#DejaVuSans-50" x="537.683594"/>
      <use xlink:href="#DejaVuSans-31" x="597.986328"/>
     </g>
    </g>
    <g id="line2d_98">
     <g>
      <use xlink:href="#mf1975afe5c" x="109" y="369.900313" style="fill: #b2df8a; stroke: #b2df8a; stroke-width: 2.025"/>
     </g>
    </g>
    <g id="text_25">
     <!-- Treeshrew P2 -->
     <g transform="translate(127 373.400313) scale(0.1 -0.1)">
      <use xlink:href="#DejaVuSans-54"/>
      <use xlink:href="#DejaVuSans-72" x="46.333984"/>
      <use xlink:href="#DejaVuSans-65" x="85.197266"/>
      <use xlink:href="#DejaVuSans-65" x="146.720703"/>
      <use xlink:href="#DejaVuSans-73" x="208.244141"/>
      <use xlink:href="#DejaVuSans-68" x="260.34375"/>
      <use xlink:href="#DejaVuSans-72" x="323.722656"/>
      <use xlink:href="#DejaVuSans-65" x="362.585938"/>
      <use xlink:href="#DejaVuSans-77" x="424.109375"/>
      <use xlink:href="#DejaVuSans-20" x="505.896484"/>
      <use xlink:href="#DejaVuSans-50" x="537.683594"/>
      <use xlink:href="#DejaVuSans-32" x="597.986328"/>
     </g>
    </g>
   </g>
  </g>
 </g>
 <defs>
  <clipPath id="pf7130037a1">
   <rect x="90" y="51.84" width="558" height="332.64"/>
  </clipPath>
 </defs>
</svg>
